<?xml version="1.0" encoding="UTF-8" standalone="no"?>
<!-- Created with Inkscape (http://www.inkscape.org/) -->

<svg
   version="1.1"
   id="svg2"
   width="202.57442"
   height="193.96724"
   viewBox="0 0 202.57442 193.96724"
   sodipodi:docname="odin.svg"
   inkscape:export-filename="ODIN-black.png"
   inkscape:export-xdpi="96"
   inkscape:export-ydpi="96"
   inkscape:version="1.2.1 (9c6d41e410, 2022-07-14)"
   xmlns:inkscape="http://www.inkscape.org/namespaces/inkscape"
   xmlns:sodipodi="http://sodipodi.sourceforge.net/DTD/sodipodi-0.dtd"
   xmlns="http://www.w3.org/2000/svg"
   xmlns:svg="http://www.w3.org/2000/svg">
  <defs
     id="defs6" />
  <sodipodi:namedview
     id="namedview4"
     pagecolor="#ffffff"
     bordercolor="#000000"
     borderopacity="0.25"
     inkscape:showpageshadow="2"
     inkscape:pageopacity="0.0"
     inkscape:pagecheckerboard="0"
     inkscape:deskcolor="#d1d1d1"
     showgrid="false"
     inkscape:zoom="1.8094849"
     inkscape:cx="-53.330094"
     inkscape:cy="95.883641"
     inkscape:window-width="1366"
     inkscape:window-height="699"
     inkscape:window-x="0"
     inkscape:window-y="0"
     inkscape:window-maximized="1"
     inkscape:current-layer="g8" />
  <g
     inkscape:groupmode="layer"
     inkscape:label="Image"
     id="g8"
     transform="translate(-60.974609,-34.446683)">
    <path
       id="path170"
       style="fill:#233247;fill-opacity:1"
       d="m 219.48242,34.447266 c -0.35326,0.01749 -1.5093,0.687601 -2.57031,1.490234 -1.89358,1.43249 -1.8798,1.612373 0.75391,9.71875 6.51405,20.051047 1.04559,34.381876 -14.55079,38.128906 -2.48315,0.59669 -2.94302,0.226663 -5.16015,-4.148437 -4.15526,-8.19968 -12.90388,-15.124976 -24.25781,-19.205078 -5.2648,-1.8918 -6.22682,-2.624412 -6.72461,-5.113282 l -0.58204,-2.904297 h -11.55664 c -10.13301,0 -11.62152,0.21557 -12.0957,1.75 -1.14922,3.71895 -2.13531,4.550062 -8.03906,6.769532 -11.42647,4.295522 -19.42978,10.847668 -23.29688,19.074218 -1.89628,4.03484 -2.33559,4.37926 -4.82422,3.78125 -15.781284,-3.79223 -21.435468,-18.219773 -14.814448,-37.796874 2.64672,-7.82594 2.654937,-7.944669 0.748047,-9.851563 -1.84207,-1.842068 -2.048885,-1.851537 -4.552735,-0.210937 -3.56118,2.333354 -11.403202,12.863508 -14.138672,18.986328 -8.01918,17.949612 -4.569036,37.495114 8.970704,50.820314 3.11987,3.07054 6.545108,5.85884 7.611328,6.19726 1.778384,0.56447 2.246638,1.05648 1.705078,1.45508 0.549291,0.30097 1.104473,0.59201 1.666016,0.86914 0.845498,0.47499 1.741701,0.83505 2.646484,1.17774 0.94459,0.3458 1.889223,0.68699 2.830078,1.04297 0.731419,0.2974 1.45188,0.62398 2.16016,0.97265 0.29075,0.1452 0.1492,0.074 0.42187,0.21485 0.5868,0.303 0.92606,0.68593 1.06641,1.05859 0.25816,0.0333 0.44336,0.0703 0.44336,0.11719 0,0.38039 -3.437332,8.20358 -7.636722,17.38281 -1.719903,3.7595 -3.212338,6.94115 -4.576172,9.83398 -0.07561,0.25276 -0.180192,0.51777 -0.328125,0.79493 -0.230256,0.43137 -0.274119,0.51435 -0.335937,0.63671 -0.29296,0.61785 -0.429144,0.88491 -0.6875,1.42383 -0.613431,1.27694 -0.916702,1.92052 -1.388672,2.78516 -0.268227,0.5231 -0.912932,1.88686 -0.978516,1.96094 -0.02259,0.0255 -0.101479,-0.0115 -0.140625,-0.006 -1.200536,2.03429 -2.170661,3.51715 -3.304687,5.23828 7.718817,7.46884 18.057186,17.63007 30.347656,29.95117 21.70872,21.76281 39.75655,39.57031 40.10352,39.57031 0.34698,0 18.80963,-18.17665 41.02734,-40.39062 13.6493,-13.6472 22.50257,-22.49972 29.42969,-29.03906 -0.76968,-1.26385 -1.46244,-2.5742 -2.03711,-3.95118 -0.20465,-0.4913 -0.40604,-0.98401 -0.60742,-1.47656 -0.25259,-0.12207 -0.46901,-0.37007 -0.6836,-0.77344 -2.76405,-5.19529 -15.20312,-32.67371 -15.20312,-33.58398 0,-0.0993 0.14696,-0.18317 0.40234,-0.25586 0.001,-0.0272 9.1e-4,-0.0548 0.004,-0.082 0.0663,-0.6215 1.07482,-1.21148 1.54883,-1.52539 0.65176,-0.44381 1.26671,-0.93802 1.92578,-1.3711 0.69476,-0.44923 1.42715,-0.82994 2.15429,-1.22265 0.5326,-0.28122 1.06889,-0.55854 1.61133,-0.82031 0.47037,-0.24057 0.85837,-0.37831 1.38086,-0.47071 0.14731,-0.0261 0.26677,-0.0354 0.36328,-0.0332 0.0518,10e-4 0.0942,0.007 0.13281,0.0156 0.82064,-0.54186 1.66537,-1.0461 2.54688,-1.48437 0.84053,-0.43612 1.67243,-0.88686 2.50391,-1.33984 1.35554,-1.10554 3.08751,-2.62507 4.87695,-4.29883 15.06654,-14.09426 18.38604,-33.957277 8.85742,-53.003909 -3.05212,-6.099249 -13.38509,-18.947655 -15.16797,-18.859375 z m -132.953123,9.466796 -0.84375,4.5 c -0.4645,2.47492 -0.84375,8.33939 -0.84375,13.03125 0,7.187112 0.402557,9.311805 2.554687,13.490235 2.21988,4.30987 6.467794,8.444415 12.308594,11.978515 1.509842,0.91356 1.402132,1.890692 -1.240234,11.300782 -1.59076,5.665066 -3.075608,10.483776 -3.298828,10.707036 -0.99326,0.9929 -10.648304,-7.57509 -14.095704,-12.509771 -5.28512,-7.565 -7.108231,-14.441422 -6.482421,-24.445312 0.5439,-8.695222 3.935078,-17.717245 9.230468,-24.552735 z m 135.986323,0 2.95313,3.5 c 3.8283,4.53788 7.57176,12.495637 8.99023,19.111329 2.33458,10.88534 -0.77357,23.617799 -7.98828,32.724609 -3.31265,4.1821 -11.76102,10.57342 -12.46093,9.42773 -0.6659,-1.08898 -5.66711,-19.534322 -5.66797,-20.904292 -3.9e-4,-0.62788 1.06318,-1.408066 2.36328,-1.734376 4.04745,-1.01586 10.25006,-7.974881 12.52344,-14.050781 2.44778,-6.54306 2.66473,-13.567219 0.68359,-22.074219 z M 155.2207,56.443359 c 3.2219,0.108424 6.34324,0.542518 6.89844,1.220703 0.5628,0.6875 1.86954,5.750238 2.90234,11.25 l 1.87891,10 13.4707,4.501954 c 7.40884,2.47608 14.00343,4.72619 14.65625,5 1.08296,0.45418 9.89191,64.754574 8.99414,65.652344 -0.18863,0.18862 -1.76997,-1.6442 -3.51367,-4.07227 -1.74371,-2.42768 -5.5316,-6.11148 -8.41797,-8.18554 -2.88597,-2.07446 -5.44484,-3.92239 -5.68554,-4.10547 -0.2407,-0.18308 1.49455,-2.30141 3.85742,-4.70899 l 4.29687,-4.3789 -1.66015,-14.85157 c -0.91265,-8.16798 -1.86945,-15.864098 -2.12696,-17.101558 -0.46193,-2.21978 -0.68257,-2.249999 -16.44921,-2.25 -8.78952,10e-7 -15.98047,0.179648 -15.98047,0.398438 0,0.21879 1.14426,7.26825 2.54297,15.66602 1.39831,8.39737 2.32073,15.84805 2.04882,16.55664 -0.27191,0.70859 -2.31406,2.21744 -4.53711,3.35156 l -4.04101,2.0625 -4.00781,-2.53125 c -2.20375,-1.39116 -4.00586,-3.2598 -4.00586,-4.1543 0,-1.33889 2.42557,-16.85746 4.4707,-28.599608 l 0.47852,-2.75 h -15.95508 c -15.73391,0 -15.96356,0.03125 -16.44922,2.25 -0.27088,1.23746 -1.17659,8.089758 -2.01367,15.224608 l -1.52344,12.97266 4.99609,5.05859 c 2.74749,2.78204 4.9961,5.36357 4.9961,5.73828 0,0.37472 -2.70632,2.51964 -6.01368,4.76563 -3.30697,2.24599 -7.80737,6.35305 -10,9.12695 -2.19224,2.77389 -3.98632,4.50294 -3.98632,3.8418 0,-1.49277 6.82751,-57.27398 7.55273,-61.70508 0.52265,-3.1934 0.6792,-3.275678 14.89258,-7.773438 l 14.36328,-4.544921 1.53516,-7.226563 c 0.84395,-3.97496 1.84309,-8.803556 2.2207,-10.728516 0.37761,-1.92492 1.19215,-3.830334 1.81055,-4.234374 0.95992,-0.62724 4.28239,-0.844752 7.5039,-0.736329 z m -16.03125,8.103516 c 1.00784,0.162766 0.97403,1.333241 0.55664,3.617187 -1.35736,7.42977 -1.59455,7.648956 -11.55078,10.666016 -14.8568,4.50217 -13.45765,4.425383 -11.25195,0.626953 2.51953,-4.33886 8.72583,-9.357302 15.43945,-12.482422 3.75047,-1.745691 5.79881,-2.5905 6.80664,-2.427734 z m 31.19727,0.0098 c 1.00435,-0.228225 3.07491,0.630812 6.91406,2.417968 6.63363,3.08789 12.91461,8.132592 15.34766,12.326172 1.33214,2.29608 1.46344,3.103572 0.5,3.076172 -3.20425,-0.09109 -21.0354,-6.613991 -21.76758,-7.962891 -0.4478,-0.82496 -1.13035,-3.41258 -1.51563,-5.75 -0.42255,-2.563576 -0.48286,-3.879236 0.52149,-4.107421 z m 31.83008,23.763671 c 0.26623,-0.05488 0.62416,0.283549 1.07422,1.011719 1.38651,2.24399 6.19081,21.047215 5.61523,21.978515 -0.29345,0.47481 -1.42619,1.09596 -2.51563,1.38086 -2.44825,0.64033 -2.62787,0.0681 -4.11132,-13.082031 -0.83612,-7.411617 -0.8612,-11.124417 -0.0625,-11.289063 z m -94.69532,0.13086 c 0.1657,0.0367 0.33134,0.141885 0.49805,0.308594 0.47162,0.47159 -0.6495,11.077744 -2.26172,21.40429 -0.56197,3.59971 -1.15908,3.89137 -3.89258,1.89258 -1.79708,-1.31435 -1.76637,-1.7096 0.97266,-12.04297 2.31332,-8.72727 3.52414,-11.819391 4.68359,-11.562494 z m 67.73243,10.96289 h 10.91211 l 0.55859,3.749994 c 0.30711,2.0625 1.07962,8.17011 1.71875,13.57227 l 1.16211,9.82226 -3.83399,3.92774 c -2.10912,2.16034 -4.30693,3.89331 -4.88281,3.84961 -0.93405,-0.0709 -10.88302,-5.92209 -12.04492,-7.08399 -0.53515,-0.53515 -4.49005,-23.4732 -4.49805,-26.08789 -0.005,-1.559916 1.18077,-1.749993 10.90821,-1.749994 z m 0.58007,2.999994 c -7.59945,0 -8.59909,0.20483 -8.31054,1.70313 0.20385,1.05852 2.02906,2.16657 4.82226,2.92578 2.47242,0.67192 6.0711,1.14317 7.9961,1.04687 3.02253,-0.15114 3.54311,-0.55062 3.8164,-2.92578 l 0.31641,-2.75 z m -32.71093,10.46289 c 0.15497,0.14782 -0.23578,3.40513 -0.86914,7.24024 l -1.15235,6.97265 -5.28711,3.16211 c -2.90716,1.73909 -5.45825,3.16211 -5.66797,3.16211 -0.20973,0 -2.54941,-2.20036 -5.19921,-4.89062 -4.63713,-4.70792 -4.79083,-5.05069 -4.10743,-9.09571 l 0.70899,-4.20312 3.15039,3.05273 3.15039,3.05274 7.49609,-4.36133 c 4.12253,-2.39904 7.62239,-4.23961 7.77735,-4.0918 z m -76.902347,3.77735 c -0.0081,0.004 -0.01729,0.006 -0.02539,0.01 0.0078,-0.002 0.01568,-0.002 0.02344,-0.004 6.25e-4,-0.002 0.0013,-0.004 0.002,-0.006 z m 23.453125,1.93164 c -6.95e-4,0.002 -0.0013,0.004 -0.002,0.006 0.0084,-1.9e-4 0.0131,1.9e-4 0.02148,0 -0.0066,-0.002 -0.01293,-0.004 -0.01953,-0.006 z m 153.265622,2.49218 c 0.0414,0.0268 0.0816,0.0553 0.12305,0.082 -0.0123,-0.0192 -0.0228,-0.0394 -0.0352,-0.0586 -0.005,-0.007 -0.0106,-0.0142 -0.0156,-0.0215 -0.0241,-8.2e-4 -0.0482,2e-4 -0.0723,-0.002 z m -181.380856,4.50196 c -0.195375,0.066 -0.388857,0.13657 -0.583985,0.20312 0.0077,0.0718 0.01512,0.14371 0.01563,0.2168 0.184591,-0.14056 0.404832,-0.2813 0.56836,-0.41992 z m 81.687496,5.76367 5.7168,3.22656 5.7168,3.22657 5.76953,-3.19727 5.76758,-3.19531 12.5039,7.53515 c 14.24834,8.58685 18.89927,13.21419 24.33008,24.20313 l 3.64258,7.36719 -6.90039,6.95312 c -3.79439,3.82369 -7.23277,6.95117 -7.64063,6.95117 -0.40786,0 -2.04492,-4.17089 -3.63867,-9.26953 -4.13148,-13.21815 -6.44942,-17.29154 -14.49805,-25.48047 l -7.125,-7.25 h -11.92187 -11.92187 l -4.48243,3.67383 c -8.91789,7.30747 -13.51814,15.13491 -18.26172,31.07617 -1.18608,3.9875 -2.46225,7.25 -2.83593,7.25 -0.37368,0 -3.77371,-3.11796 -7.55469,-6.92773 l -6.87305,-6.92774 1.3086,-3.32226 c 2.44842,-6.21479 7.9593,-14.53454 12.23242,-18.47071 2.3437,-2.15849 9.30144,-6.96294 15.46289,-10.67382 z m 63.60743,2.45898 c 0.61222,0.0504 2.62665,4.03507 6.42382,12.56055 l 5.39454,12.11328 -3.36133,3.46875 c -3.44918,3.55865 -4.96875,4.28942 -4.96875,2.38867 0,-1.40479 -2.86631,-24.57887 -3.49024,-28.21875 -0.26478,-1.54432 -0.27789,-2.33541 0.002,-2.3125 z m 56.6875,0.67774 c 10e-4,9.8e-4 0.003,0.003 0.004,0.004 10e-4,-7e-5 0.002,0 0.004,0 -0.003,-0.001 -0.005,-0.003 -0.008,-0.004 z m -161.39258,0.4082 c 0.27102,0.27102 -0.31546,7.25116 -1.30469,15.50977 -0.989194,8.25862 -2.094548,15.01562 -2.455078,15.01562 -0.99689,0 -7.044853,-6.46096 -7.064453,-7.54687 -0.02863,-1.59074 10.295341,-23.50739 10.824221,-22.97852 z m 52.23633,11.52539 c 8.21204,0 10.10398,0.30754 12.0957,1.9668 l 2.36133,1.9668 -13.90625,0.0332 c -13.84216,0.0331 -13.8956,0.0242 -12.09375,-1.9668 1.57383,-1.73907 3.07874,-2 11.54297,-2 z m 0.67968,9 h 13.72266 l -6.94531,7 c -3.8205,3.85 -7.19632,7 -7.50196,7 -0.82495,0 -12.99804,-12.43273 -12.99804,-13.27539 0,-0.3977 6.1753,-0.72461 13.72265,-0.72461 z m -20.29101,2 c 0.61299,0 4.59574,3.50268 8.84961,7.78125 l 7.73437,7.7793 -4.79297,4.7207 c -2.63526,2.59603 -5.01511,4.71875 -5.28711,4.71875 -1.14048,0 -12.93554,-12.66596 -12.93554,-13.89062 0,-2.12486 5.20123,-11.10938 6.43164,-11.10938 z m 39.82617,0 c 1.13888,0 6.74219,9.10921 6.74219,10.96094 0,0.86276 -5.74354,7.30012 -12.76368,14.30469 -7.01975,7.00416 -13.22762,12.73437 -13.79296,12.73437 -0.56533,0 -3.02209,-2.03065 -5.45899,-4.51367 l -4.42969,-4.51562 14.45899,-14.48438 c 7.95237,-7.96658 14.81241,-14.48633 15.24414,-14.48633 z m -48.13086,18 c 1.27891,0 23.87305,23.10253 23.87305,24.41016 0,0.65169 -1.70728,2.8501 -3.79297,4.88672 -2.08569,2.03662 -4.23186,3.70312 -4.76953,3.70312 -1.43722,0 -19.4375,-18.32042 -19.4375,-19.7832 0,-2.4909 3.34913,-13.2168 4.12695,-13.2168 z m 56.86914,0.19532 c 0.0795,-0.005 0.13372,0.0173 0.16406,0.0664 0.40782,0.65985 1.51345,4.05209 2.45703,7.53906 l 1.7168,6.3418 -15.90625,15.92969 c -8.74783,8.76066 -16.37955,15.92773 -16.95898,15.92773 -0.57943,0 -3.04665,-2.03175 -5.48438,-4.51562 l -4.43359,-4.51563 18.93359,-18.95312 c 11.62088,-11.63296 18.31988,-17.74885 19.51172,-17.82031 z" />
  </g>
</svg>
